<svg width="9" height="6" viewBox="0 0 9 6" fill="none" xmlns="http://www.w3.org/2000/svg">
<path d="M8.14052 1.39028L4.39052 5.14028C4.35569 5.17514 4.31434 5.2028 4.26881 5.22167C4.22329 5.24055 4.17449 5.25026 4.12521 5.25026C4.07593 5.25026 4.02713 5.24055 3.98161 5.22167C3.93608 5.2028 3.89472 5.17514 3.8599 5.14028L0.109896 1.39028C0.0395308 1.31991 0 1.22448 0 1.12496C0 1.02545 0.0395308 0.930017 0.109896 0.859652C0.180261 0.789286 0.275697 0.749756 0.375208 0.749756C0.47472 0.749756 0.570156 0.789286 0.640521 0.859652L4.12521 4.34481L7.6099 0.859652C7.64474 0.82481 7.6861 0.797173 7.73162 0.778317C7.77714 0.759461 7.82594 0.749756 7.87521 0.749756C7.92448 0.749756 7.97327 0.759461 8.0188 0.778317C8.06432 0.797173 8.10568 0.82481 8.14052 0.859652C8.17536 0.894493 8.203 0.935856 8.22186 0.981378C8.24071 1.0269 8.25042 1.07569 8.25042 1.12496C8.25042 1.17424 8.24071 1.22303 8.22186 1.26855C8.203 1.31407 8.17536 1.35544 8.14052 1.39028Z" fill="black"/>
</svg>
